# xmcd
#
# Track frame offsets:
#	150
#	19190
#	35677
#	57292
#	77079
#	91779
#	110172
#	127132
#	143962
#	159220
#	173547
#	185930
#
# Disc length: 2689 seconds
#
# Revision: 0
# Processed by: cddbd v1.5.2PL0 Copyright (c) Steve Scherf et al.
# Submitted via: EasyCDDAExtractor 16.0.8.1
#
DISCID=a20a7f0c
DTITLE=Ismael Rivera - El Sonero Mayor 32 Fania CD 2
DYEAR=1999
DGENRE=Salsa
TTITLE0=De Todas Maneras Rosas
TTITLE1=Sale El Sol
TTITLE2=Que Te Pasa A Ti
TTITLE3=Traigo De Todo
TTITLE4=Soy Feliz
TTITLE5=Las Tumbas
TTITLE6=Mi Jaragual
TTITLE7=Parece Que Le Gusta
TTITLE8=Mi Negrita Me Espera
TTITLE9=Si Te Cojo
TTITLE10=Son Son Sonero
TTITLE11=La Soledad
EXTD=
EXTT0=
EXTT1=
EXTT2=
EXTT3=
EXTT4=
EXTT5=
EXTT6=
EXTT7=
EXTT8=
EXTT9=
EXTT10=
EXTT11=
PLAYORDER=
